<svg xmlns="http://www.w3.org/2000/svg" xmlns:xlink="http://www.w3.org/1999/xlink" viewBox="0 0 14 10"><defs><path id="a" d="M.51 5.94L4.15 9.7c.41.4 1.05.4 1.45-.01.4-.41.4-1.08.02-1.5L3.6 6.11h9.32c.6 0 1.08-.5 1.08-1.11s-.48-1.11-1.07-1.11H3.6l2.01-2.08C6 1.39 6 .72 5.6.31 5.2-.1 4.56-.1 4.15.3L.51 4.06C.19 4.26 0 4.62 0 5s.19.74.51.94z"/></defs><clipPath id="b"><use xlink:href="#a" overflow="visible"/></clipPath><g clip-path="url(#b)"><defs><path id="c" d="M0-1h14v11H0z"/></defs><clipPath id="d"><use xlink:href="#c" overflow="visible"/></clipPath><path clip-path="url(#d)" fill="#fff" d="M-5-5h24v20H-5z"/></g></svg>