<svg xmlns="http://www.w3.org/2000/svg" xmlns:xlink="http://www.w3.org/1999/xlink" viewBox="0 0 20 19"><defs><path id="a" d="M4 13.01c.14 0 .28 0 .41.03l.03.03c.03.01.07-.01.09 0l.09.03c.8.27 1.38 1.03 1.38 1.91 0 1.1-.9 2-2 2s-2-.9-2-2 .9-2 2-2zm11.38-1.97c1.51.18 2.63 1.39 2.63 2.97 0 1.7-1.3 3-3 3s-3-1.3-3-3c0-1.11.57-2.05 1.44-2.56l.55 2.56.03.22h.03c.11.44.46.78.94.78.55 0 1-.45 1-1 0-.08-.04-.14-.06-.22h.03l-.59-2.75zM10 .01v2c1.28 0 2.51-.02 3.25.13.37.07.58.18.66.25.07.06.09.05.09.31 0 .05.01.07-.06.16-.07.08-.25.22-.44.31-.38.19-.78.25-.78.25l-1 .22.22 1 .22.94c-2.45.32-4.4 1.64-5.78 2.94l-.85-.95c.15-.04.37-.12.47-.15.8-.3 1-.51 1-1.41H1C1 7.81 2 8.2 3 8.2c.11 0 .27-.04.41-.06L5 10.01c-.41.52-.59.77-.75 1.03-.08 0-.16-.03-.25-.03-2.2 0-4 1.8-4 4s1.8 4 4 4 4-1.8 4-4c0-1.38-.72-2.59-1.78-3.31 1-1.3 3.28-3.76 6.34-4.13l.41 1.84c-1.77.77-2.97 2.53-2.97 4.6 0 2.8 2.2 5 5 5s5-2.2 5-5-2.2-5-5-5h-.06l-.88-3.94c.16-.06.16-.04.34-.13.34-.17.68-.39 1-.75s.6-.9.6-1.49c0-.7-.28-1.35-.75-1.78-.47-.43-1.05-.64-1.63-.75-1.13-.23-2.4-.16-3.62-.16z"/></defs><clipPath id="b"><use xlink:href="#a" overflow="visible"/></clipPath><g clip-path="url(#b)"><defs><path id="c" d="M-99-555h375v667H-99z"/></defs><clipPath id="d"><use xlink:href="#c" overflow="visible"/></clipPath><path clip-path="url(#d)" d="M-5-5h30v29.01H-5z"/></g></svg>