<svg xmlns="http://www.w3.org/2000/svg" xmlns:xlink="http://www.w3.org/1999/xlink" viewBox="0 0 15 21"><defs><path id="a" d="M7.5 11.25c-1.04 0-1.88.84-1.88 1.88S6.46 15 7.5 15s1.88-.84 1.88-1.88-.84-1.87-1.88-1.87zm0-3.75c3.1 0 5.63 2.52 5.63 5.63 0 3.1-2.52 5.63-5.63 5.63-3.1 0-5.63-2.52-5.63-5.63C1.88 10.02 4.4 7.5 7.5 7.5zm0-7.5a5.63 5.63 0 0 0-5.51 4.48l1.85.38c.35-1.7 1.84-2.98 3.66-2.98 2.08 0 3.75 1.67 3.75 3.75v1.03A7.375 7.375 0 0 0 7.5 5.63c-4.14 0-7.5 3.36-7.5 7.5 0 4.14 3.36 7.5 7.5 7.5 4.14 0 7.5-3.36 7.5-7.5 0-1.9-.71-3.63-1.88-4.95V5.63C13.13 2.53 10.59 0 7.5 0z"/></defs><clipPath id="b"><use xlink:href="#a" overflow="visible"/></clipPath><g clip-path="url(#b)"><defs><path id="c" d="M-259-554h375v667h-375z"/></defs><clipPath id="d"><use xlink:href="#c" overflow="visible"/></clipPath><path clip-path="url(#d)" d="M-5-5h25v30.63H-5z"/></g></svg>